General
Complete name                    : Butch.Cassidy.And.The.Sundance.Kid.1969.avi
Format                           : AVI
File size                        : 1.37 GiB
Duration                         : 1h 45mn
Overall bit rate                 : 1 847 Kbps

Video

Format                           : MPEG-4 Visual
Codec ID/Hint                    : XviD
Duration                         : 1h 45mn
Bit rate                         : 1 727 Kbps
Width                            : 704 pixels
Height                           : 392 pixels
Display aspect ratio             : 16:9
Stream size                      : 1.28 GiB (93%)
Writing library                  : XviD 1.2.1 (UTC 2008-12-04)

Audio

Format                           : MPEG Audio
Codec ID/Hint                    : MP3
Duration                         : 1h 45mn
Bit rate                         : 108 Kbps
Minimum bit rate                 : 96.0 Kbps
Channel(s)                       : 2 channels
Sampling rate                    : 48.0 KHz
Stream size                      : 81.7 MiB (6%)
Writing library                  : LAME3.98r

